<?xml version="1.0" encoding="utf-8"?>
<!-- Generator: Adobe Illustrator 22.0.1, SVG Export Plug-In . SVG Version: 6.00 Build 0)  -->
<svg version="1.1" id="Capa_1" xmlns="http://www.w3.org/2000/svg" xmlns:xlink="http://www.w3.org/1999/xlink" x="0px" y="0px"
	 viewBox="0 0 512 512" style="enable-background:new 0 0 512 512;" xml:space="preserve">
<style type="text/css">
	.st0{fill:#4F4F4F;}
</style>
<g>
	<g>
		<path class="st0" d="M265.5,0.2V0H256h-9.5v0.4C136.6,4.5,41,78.7,10.3,184.5l-0.2,0.1l-1.2,4.5c-1.7,6.4-3.1,12.8-4.3,19.3
			c-0.4,1.8-0.7,3.7-1.1,5.5c-1.4,8.3-2.3,16.7-2.9,25.1l-0.3,4.7l0.1,0.1c-0.2,4-0.4,8-0.4,12.1c0,138,109.7,250.7,246.5,255.8v0.2
			h9.5h9.5v-0.2C402.3,506.7,512,394,512,256S402.3,5.3,265.5,0.2z M20.2,233c1-10.6,2.8-21.2,5.3-31.7c0.2-0.7,0.3-1.3,0.5-2
			c0.8-0.1,1.7-0.2,2.5-0.2c10.5,0,19,8.5,19,19s-8.5,19-19,19c-3,0-5.9-0.7-8.5-2C20,234.3,20.1,233.7,20.2,233z M246.5,237
			c-10.5,0-19-8.5-19-19s8.5-19,19-19V237z M246.5,180.1c-20.9,0-37.9,17-37.9,37.9s17,37.9,37.9,37.9v236.8
			C120.2,487.9,19,383.5,19,256c0-0.5,0-0.9,0-1.3c3.1,0.8,6.2,1.3,9.4,1.3c20.9,0,37.9-17,37.9-37.9c0-19.9-15.4-36.1-34.9-37.6
			C62.5,87.7,148.3,23.1,246.5,19.2V180.1z M265.5,492.8V251.3v-66.5V19.2C391.8,24.1,493,128.5,493,256S391.8,487.9,265.5,492.8z"
			/>
	</g>
</g>
<g>
	<g>
		<path class="st0" d="M132.7,265.5c-26.1,0-47.4,21.3-47.4,47.4s21.3,47.4,47.4,47.4s47.4-21.3,47.4-47.4S158.9,265.5,132.7,265.5z
			 M132.7,341.3c-15.7,0-28.4-12.8-28.4-28.4c0-15.7,12.8-28.4,28.4-28.4s28.4,12.8,28.4,28.4C161.2,328.6,148.4,341.3,132.7,341.3z
			"/>
	</g>
</g>
<g>
	<g>
		<path class="st0" d="M180.1,56.9c-26.1,0-47.4,21.3-47.4,47.4s21.3,47.4,47.4,47.4s47.4-21.3,47.4-47.4S206.3,56.9,180.1,56.9z
			 M180.1,132.7c-15.7,0-28.4-12.8-28.4-28.4s12.8-28.4,28.4-28.4s28.4,12.8,28.4,28.4S195.8,132.7,180.1,132.7z"/>
	</g>
</g>
<g>
	<g>
		<path class="st0" d="M118.5,151.7c-7.8,0-14.2,6.4-14.2,14.2s6.4,14.2,14.2,14.2s14.2-6.4,14.2-14.2S126.4,151.7,118.5,151.7z
			 M118.5,170.7c-2.6,0-4.7-2.1-4.7-4.7s2.1-4.7,4.7-4.7c2.6,0,4.7,2.1,4.7,4.7S121.1,170.7,118.5,170.7z"/>
	</g>
</g>
<g>
	<g>
		<path class="st0" d="M222.8,293.9c-7.8,0-14.2,6.4-14.2,14.2s6.4,14.2,14.2,14.2S237,316,237,308.1S230.7,293.9,222.8,293.9z
			 M222.8,312.9c-2.6,0-4.7-2.1-4.7-4.7c0-2.6,2.1-4.7,4.7-4.7s4.7,2.1,4.7,4.7C227.6,310.8,225.4,312.9,222.8,312.9z"/>
	</g>
</g>
<g>
	<g>
		<path class="st0" d="M156.4,417.2c-7.8,0-14.2,6.4-14.2,14.2s6.4,14.2,14.2,14.2s14.2-6.4,14.2-14.2S164.3,417.2,156.4,417.2z
			 M156.4,436.1c-2.6,0-4.7-2.1-4.7-4.7c0-2.6,2.1-4.7,4.7-4.7s4.7,2.1,4.7,4.7C161.2,434,159.1,436.1,156.4,436.1z"/>
	</g>
</g>
<path class="st0" d="M256,11.1v489c0,0,246,2.8,246-244.1S256,11.1,256,11.1z"/>
</svg>
