<?xml version="1.0" encoding="utf-8"?>
<!-- Generator: Adobe Illustrator 22.0.1, SVG Export Plug-In . SVG Version: 6.00 Build 0)  -->
<svg version="1.1" id="Capa_1" xmlns="http://www.w3.org/2000/svg" xmlns:xlink="http://www.w3.org/1999/xlink" x="0px" y="0px"
	 viewBox="0 0 512 512" style="enable-background:new 0 0 512 512;" xml:space="preserve">
<style type="text/css">
	.st0{fill:#4F4F4F;}
</style>
<path class="st0" d="M456.1,0c-30.8,0-55.9,25.1-55.9,55.9c0,9.6,2.4,18.7,6.8,26.6L315.6,174c-12.6-9.8-28.4-15.7-45.6-15.7
	c-17.2,0-33,5.9-45.6,15.7L153,102.6c3.3-5.5,5.3-11.9,5.3-18.8c0-20.5-16.7-37.2-37.2-37.2S83.8,63.2,83.8,83.8S100.5,121,121,121
	c6.9,0,13.3-2,18.8-5.3l71.4,71.4c-9.8,12.6-15.7,28.4-15.7,45.6s5.9,33,15.7,45.6L93.3,396.2c-9.9-9-23-14.5-37.5-14.5
	C25.1,381.7,0,406.7,0,437.5s25.1,55.9,55.9,55.9s55.9-25.1,55.9-55.9c0-9.6-2.4-18.7-6.8-26.6l119.4-119.4
	c10.3,8,22.7,13.4,36.3,15.1v94.6c-26.4,4.4-46.5,27.4-46.5,55c0,30.8,25.1,55.9,55.9,55.9s55.9-25.1,55.9-55.9
	c0-27.6-20.2-50.6-46.5-55v-94.6c13.6-1.7,26-7.1,36.3-15.1l71.4,71.4c-3.3,5.5-5.3,11.9-5.3,18.8c0,20.5,16.7,37.2,37.2,37.2
	s37.2-16.7,37.2-37.2s-16.7-37.2-37.2-37.2c-6.9,0-13.3,2-18.8,5.3l-71.4-71.4c9.8-12.6,15.7-28.4,15.7-45.6s-5.9-33-15.7-45.6
	l90-90c9.9,9,23,14.5,37.5,14.5c30.8,0,55.9-25.1,55.9-55.9S486.9,0,456.1,0z"/>
</svg>
