<?xml version="1.0" encoding="utf-8"?>
<!-- Generator: Adobe Illustrator 22.0.1, SVG Export Plug-In . SVG Version: 6.00 Build 0)  -->
<svg version="1.1" id="Capa_1" xmlns="http://www.w3.org/2000/svg" xmlns:xlink="http://www.w3.org/1999/xlink" x="0px" y="0px"
	 viewBox="0 0 512 512" style="enable-background:new 0 0 512 512;" xml:space="preserve">
<style type="text/css">
	.st0{fill:#4F4F4F;}
</style>
<path class="st0" d="M502,27H10C4.5,27,0,22.5,0,17v-7C0,4.5,4.5,0,10,0h492c5.5,0,10,4.5,10,10v7C512,22.5,507.5,27,502,27z"/>
<path class="st0" d="M447.2,430.3H10c-5.5,0-10-4.5-10-10v-7c0-5.5,4.5-10,10-10h437.2c5.5,0,10,4.5,10,10v7
	C457.2,425.9,452.7,430.3,447.2,430.3z"/>
<path class="st0" d="M152.1,107.7H10c-5.5,0-10-4.5-10-10v-7c0-5.5,4.5-10,10-10h142.1c5.5,0,10,4.5,10,10v7
	C162.1,103.2,157.6,107.7,152.1,107.7z"/>
<path class="st0" d="M474.4,269H334.3c-5.5,0-10-4.5-10-10v-7c0-5.5,4.5-10,10-10h140.1c5.5,0,10,4.5,10,10v7
	C484.4,264.5,479.9,269,474.4,269z"/>
<path class="st0" d="M340.4,512H10c-5.5,0-10-4.5-10-10v-7c0-5.5,4.5-10,10-10h330.4c5.5,0,10,4.5,10,10v7
	C350.4,507.5,345.9,512,340.4,512z"/>
<path class="st0" d="M341.4,188.3H10c-5.5,0-10-4.5-10-10v-7c0-5.5,4.5-10,10-10h331.4c5.5,0,10,4.5,10,10v7
	C351.4,183.9,346.9,188.3,341.4,188.3z"/>
<path class="st0" d="M259.9,269H10c-5.5,0-10-4.5-10-10v-7c0-5.5,4.5-10,10-10h249.9c5.5,0,10,4.5,10,10v7
	C269.9,264.5,265.4,269,259.9,269z"/>
<path class="st0" d="M421.2,107.7H226.1c-5.5,0-10-4.5-10-10v-7c0-5.5,4.5-10,10-10h195.1c5.5,0,10,4.5,10,10v7
	C431.2,103.2,426.7,107.7,421.2,107.7z"/>
</svg>
