<?xml version="1.0" encoding="utf-8"?>
<!-- Generator: Adobe Illustrator 23.0.1, SVG Export Plug-In . SVG Version: 6.00 Build 0)  -->
<svg version="1.1" id="Layer_1" xmlns="http://www.w3.org/2000/svg" xmlns:xlink="http://www.w3.org/1999/xlink" x="0px" y="0px"
     viewBox="0 0 43.4 42.7" style="enable-background:new 0 0 43.4 42.7;" xml:space="preserve">
<style type="text/css">
	.st0{fill:#533694;}
	.st1{fill:#FFFFFF;}
</style>
    <g>
	<circle class="st0" cx="21.3" cy="21.5" r="20.7"/>
        <circle class="st0" cx="21.3" cy="21.5" r="20.7"/>
        <g>
		<path class="st1" d="M21.2,34.2c-2.9,0-5.4-2.1-6.7-5.1c-3.3-1.2-5.8-5.2-5.8-10c0-5.7,5.7-10.3,12.6-10.3s12.6,3.5,12.6,7.9
			c0,3.4-2.2,6.3-5.2,7.4c0.1,0.7,0.2,1.5,0.2,2.2C29,30.7,25.5,34.2,21.2,34.2z M16.3,29.4c1.2,2,2.9,3.3,4.9,3.3
			c3.5,0,6.3-2.9,6.3-6.4c0-0.6-0.1-1.3-0.2-1.9c-1.1,0.2-2.3,0.1-3.5,0c-1.1,2.9-4,5-7.3,5C16.5,29.4,16.4,29.4,16.3,29.4z
			 M15.6,27.9c0.3,0.1,0.7,0.1,1,0.1c2.6,0,4.8-1.5,5.8-3.7c-2.3-0.4-4.2-1.3-4.2-2.7c0-1.5,1.8-2.7,4.2-3c-0.7-1.9-2-3.3-3.5-3.3
			c-1.9,0-4,3.6-4,8.7C14.9,25.4,15.2,26.7,15.6,27.9z M21.3,10.2c-6.1,0-11.1,4-11.1,8.9c0,3.6,1.5,6.6,3.7,8
			c-0.2-1-0.4-2.1-0.4-3.2c0-5.7,2.4-10.2,5.5-10.2c2.2,0,4.2,1.9,5,4.7c1.9,0.2,3.6,1.9,4.4,4.2c2.4-0.9,4.1-3.3,4.1-6
			C32.5,13.2,27.4,10.2,21.3,10.2z M24.3,23c0.5,0,1.1,0.1,1.8,0.1c0.3,0,0.6,0,0.9-0.1c-0.6-1.5-1.5-2.7-2.6-3
			c0.1,0.5,0.1,1,0.1,1.6C24.4,22.1,24.4,22.6,24.3,23z M22.8,19.9c-1.9,0.2-3.2,1-3.2,1.6c0,0.3,1.1,1,3.2,1.3
			c0.1-0.4,0.1-0.8,0.1-1.2C23,21,22.9,20.5,22.8,19.9z"/>
	</g>
</g>
</svg>
