<?xml version="1.0" encoding="utf-8"?>
<!-- Generator: Adobe Illustrator 22.0.1, SVG Export Plug-In . SVG Version: 6.00 Build 0)  -->
<svg version="1.1" id="Layer_1" xmlns="http://www.w3.org/2000/svg" xmlns:xlink="http://www.w3.org/1999/xlink" x="0px" y="0px"
	 viewBox="0 0 234.4 226.1" style="enable-background:new 0 0 234.4 226.1;" xml:space="preserve">
<style type="text/css">
	.st0{fill:#FFFFFF;}
</style>
<path class="st0" d="M172.4,18.3C168.8,7.2,158.9,0,147.2,0h-60C75.5,0,65.6,7.2,62,18.4L0,226.1h66.3l50.9-170.5l50.9,170.5h66.3
	L172.4,18.3z M166.7,20.1l59.7,200h-13.7L152.5,18.3c-1.6-4.9-4.3-9-8-12.1c1-0.1,1.9-0.2,2.8-0.2C154.4,6,163.3,9.7,166.7,20.1z
	 M137.2,8.5c4.5,2.4,7.8,6.5,9.4,11.6l59.7,200h-13.7L132.4,18.3c-0.5-1.4-1-2.8-1.7-4C132.6,11.7,134.8,9.8,137.2,8.5z M110.4,6
	c-3.8,3.1-6.7,7.3-8.3,12.4L41.9,220.1H28.2L87.8,20.2C91.2,9.8,100.1,6,107.2,6L110.4,6L110.4,6z M67.8,20.2
	C71.2,9.8,80.1,6,87.2,6h3.1c-3.8,3.1-6.7,7.3-8.3,12.4L21.8,220.1H8.1L67.8,20.2z M61.9,220.1H48.2l59.6-199.9
	C111.2,9.8,120.1,6,127.2,6h3.1c-3.8,3.1-6.7,7.3-8.3,12.4L61.9,220.1z M120.4,45.1l6.9-23l59.1,198h-13.7L120.4,45.1z"/>
</svg>
