<?xml version="1.0" standalone="no"?>
<!DOCTYPE svg PUBLIC "-//W3C//DTD SVG 20010904//EN"
 "http://www.w3.org/TR/2001/REC-SVG-20010904/DTD/svg10.dtd">
<svg version="1.0" xmlns="http://www.w3.org/2000/svg"
 width="1024.000000pt" height="1024.000000pt" viewBox="0 0 1024.000000 1024.000000"
 preserveAspectRatio="xMidYMid meet">
<metadata>
Created by potrace 1.11, written by Peter Selinger 2001-2013
</metadata>
<g transform="translate(0.000000,1024.000000) scale(0.100000,-0.100000)"
fill="#000000" stroke="none">
<path d="M4977 10104 c-1 -1 -69 -4 -152 -8 -82 -4 -166 -9 -185 -11 -19 -3
-64 -7 -100 -10 -86 -7 -128 -12 -265 -31 -101 -13 -342 -58 -460 -85 -71 -17
-140 -32 -152 -35 -76 -15 -399 -116 -568 -177 -243 -88 -686 -295 -805 -377
-14 -9 -30 -19 -36 -21 -53 -18 -471 -305 -590 -404 -283 -235 -420 -370 -644
-631 -93 -107 -261 -348 -357 -509 -193 -325 -355 -740 -417 -1066 -25 -134
-36 -202 -41 -244 -4 -27 -8 -61 -10 -75 -23 -137 -23 -682 0 -820 2 -14 6
-56 10 -95 3 -38 11 -101 16 -140 5 -38 12 -88 14 -110 5 -38 8 -55 20 -115 3
-14 8 -40 11 -59 3 -18 7 -41 9 -50 28 -137 40 -187 56 -248 11 -40 22 -80 24
-90 9 -43 80 -267 122 -382 116 -322 257 -609 437 -886 39 -60 74 -114 78
-120 5 -5 45 -59 90 -120 46 -60 87 -115 93 -121 5 -6 35 -40 65 -75 91 -106
289 -299 402 -392 198 -163 445 -316 655 -406 116 -49 126 -54 141 -57 17 -3
13 3 46 -74 36 -84 162 -325 216 -415 167 -277 330 -485 550 -706 186 -186
332 -304 532 -428 208 -131 515 -267 684 -306 10 -2 46 -11 79 -19 62 -15 102
-22 170 -32 22 -3 45 -7 52 -9 32 -11 174 -19 318 -19 207 0 374 12 500 38 11
2 40 7 65 11 63 10 270 61 362 90 196 62 500 201 670 308 606 379 1054 945
1276 1612 38 113 84 288 97 365 3 19 8 42 10 50 6 20 12 63 31 210 23 173 22
610 -1 790 -2 19 -7 64 -9 100 -3 36 -8 74 -10 85 -2 11 -7 51 -11 90 -4 38
-8 72 -10 75 -2 3 -6 38 -10 78 -6 62 -5 72 9 72 9 0 35 9 59 19 23 11 80 36
127 56 411 177 840 507 1143 880 179 220 380 559 477 805 31 80 88 247 95 280
2 8 13 47 24 85 21 76 66 306 77 395 17 147 20 219 19 390 -2 102 -5 203 -9
225 -17 108 -17 105 -37 205 -54 270 -206 591 -411 868 -68 93 -84 112 -167
207 -544 617 -1467 1120 -2532 1379 -132 32 -267 61 -329 72 -14 2 -45 9 -70
14 -25 5 -61 12 -80 15 -19 2 -46 7 -60 9 -14 2 -47 7 -73 11 -27 4 -59 8 -70
11 -29 6 -62 10 -182 24 -55 6 -113 13 -130 15 -16 2 -73 7 -125 10 -52 4
-106 8 -119 10 -55 9 -695 26 -704 19z m408 -558 c184 -7 362 -18 475 -31 19
-2 60 -7 90 -10 86 -10 306 -41 346 -49 12 -2 39 -7 60 -11 160 -25 371 -73
659 -149 180 -48 576 -190 780 -281 88 -39 322 -157 383 -194 29 -17 55 -31
57 -31 15 0 333 -212 415 -276 326 -256 571 -538 712 -819 74 -146 135 -344
155 -494 13 -101 5 -391 -13 -499 -5 -28 -23 -128 -31 -172 -21 -120 -85 -324
-148 -475 -38 -93 -134 -280 -166 -327 -11 -14 -19 -31 -19 -37 0 -6 -4 -11
-8 -11 -5 0 -14 -11 -20 -25 -7 -14 -16 -31 -22 -38 -6 -7 -39 -51 -74 -99
-95 -127 -98 -131 -246 -278 -209 -209 -426 -364 -670 -479 -153 -71 -190 -83
-190 -61 0 21 -75 200 -136 327 -222 456 -523 815 -875 1042 -163 106 -407
213 -539 236 -19 3 -65 11 -102 17 l-66 11 -42 126 c-215 647 -572 1141 -1045
1451 -104 68 -276 150 -395 189 -82 27 -128 38 -275 67 -55 10 -309 13 -365 4
-30 -5 -71 -12 -90 -15 -142 -23 -344 -107 -498 -209 -339 -225 -626 -578
-868 -1072 -46 -94 -84 -175 -84 -179 0 -4 -6 -21 -14 -38 -7 -18 -20 -48 -29
-67 -107 -245 -242 -724 -312 -1107 -2 -15 -7 -37 -9 -48 -2 -11 -7 -45 -12
-75 -4 -30 -8 -57 -9 -60 -2 -8 -16 -103 -20 -140 -2 -19 -6 -51 -9 -70 -3
-19 -8 -57 -10 -85 -3 -27 -8 -77 -11 -110 -36 -363 -40 -827 -11 -1165 2 -19
6 -53 10 -75 3 -22 8 -62 12 -90 10 -89 53 -348 87 -523 l24 -122 -35 20 c-70
42 -237 177 -339 274 -265 253 -483 558 -658 921 -78 161 -167 384 -210 530
-15 50 -33 108 -40 130 -15 48 -82 335 -89 385 -3 19 -12 76 -20 125 -8 50
-18 115 -21 145 -4 30 -8 66 -10 80 -4 31 -16 167 -20 240 -5 72 -5 446 -1
485 2 17 7 62 10 100 8 78 15 132 21 155 2 8 7 34 10 57 9 67 61 270 94 370
101 303 241 577 435 848 47 67 94 130 103 141 10 11 38 44 63 74 152 186 412
431 645 608 81 61 294 205 350 236 17 9 46 26 65 38 327 197 791 388 1215 498
127 33 361 85 430 95 11 1 43 6 70 10 28 3 57 8 65 10 8 2 42 7 75 11 33 3 68
8 78 10 10 2 53 6 95 9 42 4 88 8 102 11 14 2 120 7 235 10 116 4 211 8 213 9
1 1 19 1 40 -1 20 -2 109 -5 197 -8z m-1045 -2011 c14 -3 37 -7 51 -10 52 -9
155 -46 228 -82 66 -31 216 -124 231 -143 3 -3 19 -16 35 -29 162 -124 377
-398 510 -653 60 -116 155 -330 155 -352 0 -9 -19 -16 -57 -21 -98 -12 -302
-55 -428 -91 -562 -161 -968 -457 -1107 -810 -38 -96 -60 -283 -43 -364 3 -14
7 -34 9 -45 10 -52 52 -143 97 -210 179 -267 597 -493 1174 -635 88 -22 171
-41 185 -44 14 -3 52 -10 85 -16 102 -19 98 -11 53 -98 -69 -133 -99 -184
-166 -282 -328 -479 -805 -827 -1348 -984 -117 -34 -235 -61 -311 -71 -21 -3
-47 -7 -58 -10 -90 -19 -516 -28 -615 -12 -96 14 -120 20 -129 31 -9 11 -92
277 -109 351 -5 22 -19 76 -31 121 -12 45 -24 91 -26 103 -2 13 -6 30 -9 39
-3 9 -8 33 -11 52 -3 19 -10 59 -16 89 -6 30 -12 64 -14 75 -1 12 -5 35 -8 51
-8 43 -15 91 -23 160 -3 33 -8 68 -10 78 -23 124 -23 671 1 962 6 71 16 179
20 205 2 14 6 54 10 90 3 36 8 72 10 80 2 8 7 35 10 60 9 66 14 96 30 185 22
121 30 160 56 280 34 149 64 260 110 400 18 55 34 105 35 112 4 23 74 202 123
318 113 263 262 513 416 700 192 232 397 375 600 418 67 15 225 16 285 2z
m1374 -1803 c6 -9 13 -48 21 -108 3 -22 7 -50 10 -64 20 -95 24 -275 12 -570
-7 -165 -15 -252 -27 -305 -5 -22 -9 -41 -10 -42 0 -2 0 -10 0 -19 0 -14 -9
-16 -62 -10 -81 10 -261 46 -413 85 -344 87 -673 243 -761 362 -31 41 -28 82
8 154 61 118 231 239 508 358 33 14 217 75 250 82 8 2 65 15 125 29 61 14 126
27 145 30 75 10 125 18 127 20 7 6 63 5 67 -2z m736 -68 c280 -112 575 -432
785 -853 53 -107 125 -268 125 -280 0 -9 -61 -25 -135 -36 -84 -12 -508 -5
-585 10 -23 5 -240 19 -293 20 -20 0 -37 0 -37 0 4 0 26 166 45 330 8 72 18
150 23 175 16 86 3 476 -19 594 -16 84 -17 84 91 40z m-125 -1709 c76 -6 240
-17 305 -21 91 -4 496 -4 550 1 25 2 74 7 110 10 36 3 91 11 123 17 46 9 61 8
67 -2 7 -12 37 -189 46 -275 3 -22 6 -53 9 -70 2 -16 7 -64 10 -105 4 -41 8
-88 10 -105 6 -45 6 -291 0 -365 -7 -89 -23 -216 -35 -270 -5 -25 -12 -56 -14
-70 -15 -92 -88 -322 -142 -453 -354 -848 -1159 -1443 -2059 -1523 -232 -21
-446 -5 -650 46 -356 90 -673 278 -980 582 -60 60 -135 139 -165 175 -30 36
-60 71 -65 77 -41 45 -275 384 -275 400 0 2 42 5 93 5 225 3 391 21 612 66
131 27 358 94 460 135 17 7 39 16 50 20 134 53 377 176 473 241 24 16 45 29
48 29 3 0 16 8 29 18 12 9 33 24 46 32 224 147 530 435 699 659 14 18 35 45
46 59 114 142 297 475 375 679 l9 25 88 -6 c48 -4 105 -9 127 -11z"/>
</g>
</svg>
